<svg width="36" height="32" viewBox="0 0 36 32" fill="none" xmlns="http://www.w3.org/2000/svg">
<path fill-rule="evenodd" clip-rule="evenodd" d="M2.79241 16.1042V29.5541C2.79241 30.9052 4.03176 31.9994 5.56164 31.9994H12.4612C13.2255 31.9994 13.8458 31.4516 13.8458 30.7766V23.4405H22.1535V30.7766C22.1535 31.4516 22.7738 31.9994 23.5381 31.9994H30.4847C31.2187 31.9994 31.9234 31.7415 32.4426 31.2829C32.9618 30.8244 33.2539 30.2022 33.2539 29.5541V16.1042H34.615C35.1744 16.1042 35.6798 15.8059 35.8946 15.3498C36.1091 14.8924 35.9901 14.3666 35.5939 14.0171C35.5939 14.0171 25.3311 4.95446 20.9367 1.07367C19.3154 -0.35789 16.6846 -0.35789 15.0633 1.07367L0.406141 14.0171C0.0099193 14.3666 -0.10907 14.8924 0.105418 15.3498C0.320216 15.8059 0.825544 16.1042 1.38496 16.1042H2.79241Z" fill="#DFDFDF"/>
</svg>
